<svg xmlns="http://www.w3.org/2000/svg" enable-background="new 0 0 50 50" viewBox="0 0 50 50"><polygon fill="#686868" points="23.76 19.088 9.595 10.856 23.51 2.822 37.675 11.055"/><polygon fill="#4BA0D8" points="11.198 10.859 23.508 3.751 36.072 11.052 23.762 18.16"/><polygon fill="#0092BF" points="35.466 11.401 36.072 11.052 23.508 3.751 11.198 10.859 11.804 11.21 23.508 4.452"/><polygon fill="#D7D7D7" points="20.293 48.998 6.133 40.768 6.083 17.238 20.253 25.478"/><polygon fill="#686868" points="20.278 42.898 6.112 34.666 6.111 33.8 20.272 42.041"/><polygon fill="#F1F1F1" points="20.251 25.474 6.086 17.242 9.602 13.617 23.768 21.849"/><polygon fill="#D7D7D7" points="23.768 21.849 9.602 13.617 9.595 10.856 23.76 19.088"/><polygon fill="#B0AFB0" points="37.731 38.926 20.293 49 20.253 25.476 23.766 21.851 23.758 19.085 37.675 11.053 37.699 32.84 37.715 32.833"/><polygon fill="#515050" points="37.713 31.971 37.714 32.831 20.278 42.898 20.272 42.041"/><path fill="#686868" d="M37.6764 25.2087l.0019.6557-1.7813 1.0284c-.1579.0912-.2847.0165-.2852-.1625-.0005-.1815.1254-.402.2833-.4932L37.6764 25.2087zM37.6637 20.7352l.0019.6557-1.7813 1.0284c-.1579.0912-.2847.0165-.2852-.1649-.0005-.179.1254-.3996.2833-.4907L37.6637 20.7352zM37.668 22.228l.0019.6532-1.7813 1.0284c-.1579.0912-.2847.0165-.2852-.1625-.0005-.1815.1254-.3996.2833-.4907L37.668 22.228zM37.6722 23.7183l.0019.6532L35.8928 25.4c-.1579.0912-.2847.0189-.2852-.1625-.0005-.1815.1254-.3996.2833-.4907L37.6722 23.7183zM37.6595 19.2448l.0019.6533-1.7813 1.0284c-.1579.0912-.2847.0189-.2852-.1625-.0005-.1815.1254-.3996.2833-.4907L37.6595 19.2448zM37.6553 17.7521l.0019.6557-1.7813 1.0284c-.1579.0912-.2847.0165-.2852-.1625-.0005-.1815.1254-.402.2833-.4931L37.6553 17.7521zM37.6511 16.2617l.0019.6532-1.7813 1.0284c-.1579.0912-.2847.019-.2852-.1625-.0005-.1815.1254-.3996.2833-.4907L37.6511 16.2617z"/><g><polygon fill="#69C4EF" points="28.875 6.87 27.919 6.314 30.88 14.05 31.489 13.698"/><polygon fill="#69C4EF" points="23.792 3.916 28.252 15.568 30.141 14.477 26.758 5.639"/><polygon fill="#69C4EF" points="17.205 7.39 20.631 16.341 23.598 18.065 19.094 6.3"/><polygon fill="#69C4EF" points="19.834 5.873 24.397 17.794 25.005 17.442 20.442 5.521"/></g><g><path fill="#BFBFBF" d="M25.0023,12.2202c0-0.0643,0.0482-0.1528,0.1126-0.1929L9.9061,3.1943
				C9.8417,3.2345,9.7935,3.3229,9.7935,3.3873v0.8522c0,0.0321,0.0161,0.0643,0.0321,0.0723l15.2088,8.833
				c-0.016-0.008-0.0321-0.0402-0.0321-0.0723V12.2202z"/><path fill="#929393" d="M37.955,9.9123c-0.0002-0.0708-0.0517-0.1001-0.1133-0.0646L25.112,12.0285
				c-0.0616,0.0355-0.1128,0.1242-0.1126,0.195l0.0025,0.8493c0.0002,0.0708,0.0517,0.1001,0.1133,0.0646l12.5604-2.0829
				l0.1694-0.0978c0.0616-0.0356,0.1128-0.1242,0.1126-0.195L37.955,9.9123z"/><path fill="#F1F1F1" d="M37.9212,9.8401l-0.8076-0.469L22.7131,1.0078l-0.0004-0.0002c-0.0021-0.0012-0.004-0.0021-0.006-0.0029
			c-0.002-0.0008-0.004-0.0015-0.0061-0.0022c-0.0021-0.0006-0.0043-0.0011-0.0064-0.0015
			c-0.0023-0.0004-0.0046-0.0007-0.0069-0.0008C22.6848,1,22.6823,1,22.6797,1.0001c-0.0027,0.0001-0.0055,0.0004-0.0084,0.0008
			c-0.0032,0.0005-0.0065,0.0012-0.0098,0.0021c-0.0043,0.0012-0.0087,0.0026-0.0131,0.0045
			c-0.005,0.0021-0.0101,0.0046-0.0153,0.0076L9.9033,3.1958l15.2087,8.8327l12.7298-2.1807c0.031-0.0179,0.0594-0.0193,0.08-0.0073
			l-0.0011-0.0006L37.9212,9.8401z"/><g><polygon fill="#B0AFB0" points="23.438 8.488 21.702 8.135 17.653 5.856 18.144 5.46"/><path fill="#D7D7D7" d="M23.4382,8.4883L22.2155,8.568c-0.2599,0.0169-0.6238-0.088-0.8125-0.2347l-4.6112-2.4974
								c-0.1884-0.1464-0.1303-0.2792,0.1295-0.2961l1.2227-0.0797l-0.4906,0.3958l4.0488,2.2792L23.4382,8.4883z"/></g></g><g><polygon fill="#969595" points="17.344 19.756 16.69 20.136 16.032 19.756 16.686 19.376"/><polygon fill="#969595" points="18.512 21.46 17.858 21.84 17.199 21.46 17.853 21.08"/><polygon fill="#969595" points="17.622 21.977 16.968 22.357 16.31 21.977 16.964 21.597"/><g enable-background="new"><polygon fill="#969595" points="16.455 20.273 15.801 20.653 15.142 20.273 15.796 19.893"/><polygon fill="#969595" points="15.566 20.789 14.912 21.169 14.253 20.789 14.907 20.409"/><polygon fill="#969595" points="17.483 20.866 16.829 21.247 16.171 20.866 16.825 20.486"/><polygon fill="#969595" points="16.594 21.383 15.94 21.763 15.282 21.383 15.936 21.003"/></g><polygon fill="#69C4EF" points="9.839 15.423 15.967 18.961 13.535 20.375 7.829 17.081"/><polygon fill="#35A2D8" points="15.575 19.189 15.967 18.961 9.839 15.423 7.829 17.08 8.173 17.279 9.903 15.915"/><path fill="#EBC143" d="M21.3858,21.9578c0.0904,0.0522,0.0908,0.1366-0.0032,0.1913l-0.4717,0.4289
				c-0.0898,0.0522-0.2399,0.0547-0.3302,0.0025l-1.2693-0.7328c-0.0904-0.0522-0.0865-0.1391,0.0032-0.1913l0.4717-0.4289
				c0.094-0.0547,0.2398-0.0546,0.3302-0.0025L21.3858,21.9578z"/><polygon fill="#969595" points="19.401 20.943 18.747 21.323 18.088 20.943 18.742 20.563"/><polygon fill="#969595" points="18.372 20.35 17.718 20.73 17.06 20.35 17.714 19.97"/><path fill="#73AE43" d="M19.5804,22.3894c0.4237,0.1077,0.5227,0.4514,0.2199,0.7639c-0.3028,0.3124-0.8938,0.4764-1.3175,0.3687
				c-0.4238-0.1077-0.5214-0.4467-0.2186-0.7591C18.5671,22.4505,19.1567,22.2817,19.5804,22.3894z"/></g><polygon fill="#4F4D4D" points="24.348 33.197 33.384 27.945 33.4 25.602 24.364 30.854"/><g><path fill="#BFBFBF" d="M35.8983,33.8506c0-0.053-0.0398-0.1259-0.0928-0.159l8.0187-4.6572
					c0.053,0.0331,0.0928,0.106,0.0928,0.159v0.7024c0,0.0265-0.0133,0.053-0.0265,0.0596l-8.0187,4.6572
					c0.0132-0.0066,0.0265-0.0331,0.0265-0.0596V33.8506z"/><path fill="#929393" d="M25.2216,31.9483c0.0002-0.0583,0.0426-0.0825,0.0934-0.0532l10.4929,1.7975
					c0.0508,0.0293,0.0929,0.1024,0.0928,0.1607l-0.002,0.7001c-0.0002,0.0583-0.0426,0.0825-0.0933,0.0532l-10.8177-1.7817
					L25.2216,31.9483z"/><path fill="#D7D7D7" d="M25.2495,31.8887l0.6657-0.3866l6.8817-3.9719l0.0005-0.0003c0.0015-0.0009,0.0031-0.0017,0.0048-0.0023
				c0.0016-0.0007,0.0033-0.0013,0.005-0.0018c0.0017-0.0005,0.0035-0.0009,0.0053-0.0012
				c0.0019-0.0003,0.0038-0.0006,0.0057-0.0007c0.002-0.0001,0.0041-0.0001,0.0062,0c0.0023,0.0001,0.0046,0.0003,0.007,0.0007
				c0.0026,0.0004,0.0053,0.001,0.0081,0.0017c0.0036,0.001,0.0072,0.0022,0.0108,0.0037c0.0041,0.0017,0.0083,0.0038,0.0126,0.0063
				l10.9636,1.4994l-8.0186,4.657L25.315,31.895c-0.0255-0.0147-0.049-0.0159-0.066-0.006l0.0009-0.0005L25.2495,31.8887z"/><polygon fill="#929393" points="25.915 31.502 32.526 27.686 43.342 29.317 36.215 33.456 25.643 31.66"/><g><polygon fill="#515050" points="25.643 31.66 25.915 31.502 31.771 28.122 42.59 29.753 36.215 33.456"/></g></g></svg>